<svg width="135" height="60" viewBox="0 0 135 60" fill="none" xmlns="http://www.w3.org/2000/svg">
<mask id="path-1-inside-1_1202_434" fill="white">
<path d="M26.4142 31.532C26.4142 33.3641 26.1495 35.4076 25.6202 37.6625C23.7145 45.6956 20.662 49.7121 16.4626 49.7121C13.957 49.7121 11.6808 48.3028 9.63404 45.4842C7.58724 42.7008 6.49327 39.5299 6.35211 35.9714L5.45223 42.3661H2.69965C2.09973 31.5497 1.19984 20.1519 0 8.17282C3.17606 6.16457 6.77559 5.16044 10.7986 5.16044C14.1864 5.16044 17.1154 5.84747 19.5857 7.22154C22.0912 8.59562 23.3793 10.2692 23.4499 12.2422C23.4499 12.2422 23.4499 12.4007 23.4499 12.7178C23.4499 17.9323 20.362 21.1384 14.1864 22.3363C15.2098 22.2306 16.1449 22.1778 16.9919 22.1778C23.2734 22.1778 26.4142 25.2959 26.4142 31.532ZM13.8688 15.4131C13.8688 15.3779 13.8511 15.0432 13.8158 14.409C13.71 12.6826 13.3924 11.2028 12.863 9.96969C12.369 8.70131 11.822 8.06713 11.2221 8.06713H11.1691C10.6045 8.06713 10.1457 8.56039 9.79284 9.5469C9.47523 10.4982 9.31643 11.7137 9.31643 13.1935C9.31643 13.8629 9.31643 14.1976 9.31643 14.1976C9.4223 15.924 9.72226 17.4214 10.2163 18.6898C10.7457 19.9229 11.3103 20.5395 11.9102 20.5395H11.9631C12.5278 20.5395 12.9865 20.0638 13.3394 19.1126C13.6923 18.126 13.8688 16.8929 13.8688 15.4131ZM16.3038 36.8698C16.3038 34.7558 16.0391 32.3952 15.5097 29.788C14.8392 26.3352 13.957 24.6265 12.863 24.6617C12.2631 24.6617 11.7691 25.3487 11.3809 26.7228C11.028 28.0969 10.8515 29.8233 10.8515 31.902C10.8515 33.1704 10.8692 34.0336 10.9045 34.4916C11.1162 37.1693 11.5397 39.4418 12.1749 41.3091C12.8454 43.1764 13.5335 44.1101 14.2393 44.1101H14.2922C14.8922 44.1101 15.3686 43.4231 15.7215 42.049C16.1097 40.6749 16.3038 38.9485 16.3038 36.8698Z"/>
<path d="M61.0685 50.2758C61.0685 53.1649 60.4333 55.5078 59.1629 57.3047C57.8924 59.1016 56.2691 60 54.2929 60C51.1521 60 47.8879 57.7451 44.5001 53.2353C42.2062 50.1701 40.1418 46.5588 38.3068 42.4013C38.2362 42.3308 38.1303 42.1899 37.9892 41.9785C38.1656 46.0655 38.5538 49.9763 39.1537 53.711L30.1549 53.9752C30.4725 46.0479 30.6313 41.1858 30.6313 39.3889C30.6313 34.9144 30.4196 30.0523 29.9961 24.8026L32.7487 24.4855L34.6014 30.8274V30.0347C34.6014 24.8907 35.9424 20.698 38.6244 17.4566C41.024 14.5675 43.7943 13.123 46.935 13.123C49.7229 13.123 51.8932 14.3033 53.446 16.6639C54.787 18.7074 55.4575 21.1913 55.4575 24.1156C55.4575 28.1673 54.0459 32.2191 51.2227 36.2708C48.6113 40.0407 45.8587 42.4189 42.965 43.4054C44.3766 46.6468 45.8764 49.2364 47.4644 51.1742C48.8407 52.8654 49.9523 53.711 50.7992 53.711C51.3639 53.711 51.6462 53.3058 51.6462 52.4955C51.6462 50.91 50.5875 48.4437 48.4701 45.0966L57.9454 38.7547C60.0274 42.8769 61.0685 46.7173 61.0685 50.2758ZM43.9178 24.9083C43.9178 21.3146 43.4061 19.4649 42.3827 19.3592H42.2768C41.571 19.3592 40.83 20.2928 40.0536 22.1602C39.3125 23.9923 38.7655 26.2472 38.4126 28.9248C38.2009 30.4751 38.095 32.0253 38.095 33.5755C38.095 37.1693 38.6067 39.019 39.6301 39.1247H39.736C40.4418 39.1247 41.1652 38.191 41.9063 36.3237C42.6827 34.4564 43.2473 32.2015 43.6002 29.559C43.8119 28.0088 43.9178 26.4586 43.9178 24.9083Z"/>
<path d="M89.9706 35.6895L77.7428 37.5392V36.4822C77.7428 32.3952 77.6369 28.3787 77.4252 24.4327L72.0259 25.7539C71.6377 29.8761 71.4436 33.2232 71.4436 35.7952L59.1099 35.4253C63.4152 25.0316 67.4206 13.3168 71.126 0.280718L77.3193 1.39055C78.5191 8.75416 80.1248 15.0608 82.1363 20.3105C82.9833 20.0991 84.0772 19.7996 85.4182 19.412C86.3358 23.6399 87.8532 29.0658 89.9706 35.6895ZM77.2134 21.5788C76.7547 15.9416 75.9783 11.2381 74.8843 7.46817C73.9668 11.0267 73.1022 16.1354 72.2906 22.7944L77.2134 21.5788Z"/>
<path d="M110.756 17.4742C107.121 16.8048 103.628 16.4701 100.275 16.4701H100.01C100.469 20.839 101.598 29.6119 103.398 42.7889H91.3292C91.9997 37.7154 92.5114 33.5579 92.8643 30.3165C93.6407 23.6928 94.17 18.0908 94.4524 13.5106H93.129C90.9058 13.5106 87.8532 13.7924 83.9714 14.3561C83.9714 14.1095 84.0067 13.2111 84.0772 11.6609C84.1478 10.4982 84.1831 9.56451 84.1831 8.85986C84.1831 7.23916 84.0596 6.05887 83.8126 5.31898C86.0358 5.63608 88.5061 5.79462 91.2234 5.79462C92.5997 5.79462 95.2287 5.72416 99.1106 5.58323C99.1106 6.04125 99.1459 6.93968 99.2164 8.27852C100.804 8.27852 102.851 8.06713 105.357 7.64434C107.121 7.29201 108.886 6.9573 110.65 6.64021C110.544 7.94381 110.491 9.28265 110.491 10.6567C110.491 12.665 110.58 14.9375 110.756 17.4742Z"/>
<path d="M135 21.526L120.284 44.5153C120.814 44.4096 121.766 44.3567 123.143 44.3567C123.813 44.3567 124.96 44.3743 126.583 44.4096C128.242 44.4448 129.442 44.4624 130.183 44.4624C131.383 44.4624 132.442 44.4272 133.359 44.3567C133.006 46.5764 132.83 48.7079 132.83 50.7514C132.83 52.7949 133.006 54.3275 133.359 55.3493C130.959 54.9617 123.901 54.2395 112.185 53.1825L111.868 47.3163C114.02 45.8013 116.685 42.4718 119.861 37.3278C124.59 29.6823 127.095 25.6658 127.377 25.2783C126.389 25.1021 125.313 25.014 124.148 25.014C122.49 25.014 120.937 25.2254 119.49 25.6482C119.243 25.8596 119.032 26.1767 118.855 26.5995C118.432 27.6917 118.185 29.3124 118.114 31.4616L107.633 32.73L108.004 21.4203C109.203 21.7021 114.62 21.8431 124.254 21.8431C129.512 21.8431 133.094 21.7374 135 21.526Z"/>
<path d="M58.849 1.18834C59.1719 2.79881 52.7501 5.44014 44.5055 7.08792C36.261 8.7357 29.3156 8.76595 28.9927 7.15548C28.6698 5.54501 35.0916 2.90368 43.3362 1.2559C51.5807 -0.391882 58.5261 -0.42213 58.849 1.18834Z"/>
</mask>
<path d="M26.4142 31.532C26.4142 33.3641 26.1495 35.4076 25.6202 37.6625C23.7145 45.6956 20.662 49.7121 16.4626 49.7121C13.957 49.7121 11.6808 48.3028 9.63404 45.4842C7.58724 42.7008 6.49327 39.5299 6.35211 35.9714L5.45223 42.3661H2.69965C2.09973 31.5497 1.19984 20.1519 0 8.17282C3.17606 6.16457 6.77559 5.16044 10.7986 5.16044C14.1864 5.16044 17.1154 5.84747 19.5857 7.22154C22.0912 8.59562 23.3793 10.2692 23.4499 12.2422C23.4499 12.2422 23.4499 12.4007 23.4499 12.7178C23.4499 17.9323 20.362 21.1384 14.1864 22.3363C15.2098 22.2306 16.1449 22.1778 16.9919 22.1778C23.2734 22.1778 26.4142 25.2959 26.4142 31.532ZM13.8688 15.4131C13.8688 15.3779 13.8511 15.0432 13.8158 14.409C13.71 12.6826 13.3924 11.2028 12.863 9.96969C12.369 8.70131 11.822 8.06713 11.2221 8.06713H11.1691C10.6045 8.06713 10.1457 8.56039 9.79284 9.5469C9.47523 10.4982 9.31643 11.7137 9.31643 13.1935C9.31643 13.8629 9.31643 14.1976 9.31643 14.1976C9.4223 15.924 9.72226 17.4214 10.2163 18.6898C10.7457 19.9229 11.3103 20.5395 11.9102 20.5395H11.9631C12.5278 20.5395 12.9865 20.0638 13.3394 19.1126C13.6923 18.126 13.8688 16.8929 13.8688 15.4131ZM16.3038 36.8698C16.3038 34.7558 16.0391 32.3952 15.5097 29.788C14.8392 26.3352 13.957 24.6265 12.863 24.6617C12.2631 24.6617 11.7691 25.3487 11.3809 26.7228C11.028 28.0969 10.8515 29.8233 10.8515 31.902C10.8515 33.1704 10.8692 34.0336 10.9045 34.4916C11.1162 37.1693 11.5397 39.4418 12.1749 41.3091C12.8454 43.1764 13.5335 44.1101 14.2393 44.1101H14.2922C14.8922 44.1101 15.3686 43.4231 15.7215 42.049C16.1097 40.6749 16.3038 38.9485 16.3038 36.8698Z" fill="#FF2B90"/>
<path d="M61.0685 50.2758C61.0685 53.1649 60.4333 55.5078 59.1629 57.3047C57.8924 59.1016 56.2691 60 54.2929 60C51.1521 60 47.8879 57.7451 44.5001 53.2353C42.2062 50.1701 40.1418 46.5588 38.3068 42.4013C38.2362 42.3308 38.1303 42.1899 37.9892 41.9785C38.1656 46.0655 38.5538 49.9763 39.1537 53.711L30.1549 53.9752C30.4725 46.0479 30.6313 41.1858 30.6313 39.3889C30.6313 34.9144 30.4196 30.0523 29.9961 24.8026L32.7487 24.4855L34.6014 30.8274V30.0347C34.6014 24.8907 35.9424 20.698 38.6244 17.4566C41.024 14.5675 43.7943 13.123 46.935 13.123C49.7229 13.123 51.8932 14.3033 53.446 16.6639C54.787 18.7074 55.4575 21.1913 55.4575 24.1156C55.4575 28.1673 54.0459 32.2191 51.2227 36.2708C48.6113 40.0407 45.8587 42.4189 42.965 43.4054C44.3766 46.6468 45.8764 49.2364 47.4644 51.1742C48.8407 52.8654 49.9523 53.711 50.7992 53.711C51.3639 53.711 51.6462 53.3058 51.6462 52.4955C51.6462 50.91 50.5875 48.4437 48.4701 45.0966L57.9454 38.7547C60.0274 42.8769 61.0685 46.7173 61.0685 50.2758ZM43.9178 24.9083C43.9178 21.3146 43.4061 19.4649 42.3827 19.3592H42.2768C41.571 19.3592 40.83 20.2928 40.0536 22.1602C39.3125 23.9923 38.7655 26.2472 38.4126 28.9248C38.2009 30.4751 38.095 32.0253 38.095 33.5755C38.095 37.1693 38.6067 39.019 39.6301 39.1247H39.736C40.4418 39.1247 41.1652 38.191 41.9063 36.3237C42.6827 34.4564 43.2473 32.2015 43.6002 29.559C43.8119 28.0088 43.9178 26.4586 43.9178 24.9083Z" fill="#FF2B90"/>
<path d="M89.9706 35.6895L77.7428 37.5392V36.4822C77.7428 32.3952 77.6369 28.3787 77.4252 24.4327L72.0259 25.7539C71.6377 29.8761 71.4436 33.2232 71.4436 35.7952L59.1099 35.4253C63.4152 25.0316 67.4206 13.3168 71.126 0.280718L77.3193 1.39055C78.5191 8.75416 80.1248 15.0608 82.1363 20.3105C82.9833 20.0991 84.0772 19.7996 85.4182 19.412C86.3358 23.6399 87.8532 29.0658 89.9706 35.6895ZM77.2134 21.5788C76.7547 15.9416 75.9783 11.2381 74.8843 7.46817C73.9668 11.0267 73.1022 16.1354 72.2906 22.7944L77.2134 21.5788Z" fill="#FF2B90"/>
<path d="M110.756 17.4742C107.121 16.8048 103.628 16.4701 100.275 16.4701H100.01C100.469 20.839 101.598 29.6119 103.398 42.7889H91.3292C91.9997 37.7154 92.5114 33.5579 92.8643 30.3165C93.6407 23.6928 94.17 18.0908 94.4524 13.5106H93.129C90.9058 13.5106 87.8532 13.7924 83.9714 14.3561C83.9714 14.1095 84.0067 13.2111 84.0772 11.6609C84.1478 10.4982 84.1831 9.56451 84.1831 8.85986C84.1831 7.23916 84.0596 6.05887 83.8126 5.31898C86.0358 5.63608 88.5061 5.79462 91.2234 5.79462C92.5997 5.79462 95.2287 5.72416 99.1106 5.58323C99.1106 6.04125 99.1459 6.93968 99.2164 8.27852C100.804 8.27852 102.851 8.06713 105.357 7.64434C107.121 7.29201 108.886 6.9573 110.65 6.64021C110.544 7.94381 110.491 9.28265 110.491 10.6567C110.491 12.665 110.58 14.9375 110.756 17.4742Z" fill="#FF2B90"/>
<path d="M135 21.526L120.284 44.5153C120.814 44.4096 121.766 44.3567 123.143 44.3567C123.813 44.3567 124.96 44.3743 126.583 44.4096C128.242 44.4448 129.442 44.4624 130.183 44.4624C131.383 44.4624 132.442 44.4272 133.359 44.3567C133.006 46.5764 132.83 48.7079 132.83 50.7514C132.83 52.7949 133.006 54.3275 133.359 55.3493C130.959 54.9617 123.901 54.2395 112.185 53.1825L111.868 47.3163C114.02 45.8013 116.685 42.4718 119.861 37.3278C124.59 29.6823 127.095 25.6658 127.377 25.2783C126.389 25.1021 125.313 25.014 124.148 25.014C122.49 25.014 120.937 25.2254 119.49 25.6482C119.243 25.8596 119.032 26.1767 118.855 26.5995C118.432 27.6917 118.185 29.3124 118.114 31.4616L107.633 32.73L108.004 21.4203C109.203 21.7021 114.62 21.8431 124.254 21.8431C129.512 21.8431 133.094 21.7374 135 21.526Z" fill="#FF2B90"/>
<path d="M58.849 1.18834C59.1719 2.79881 52.7501 5.44014 44.5055 7.08792C36.261 8.7357 29.3156 8.76595 28.9927 7.15548C28.6698 5.54501 35.0916 2.90368 43.3362 1.2559C51.5807 -0.391882 58.5261 -0.42213 58.849 1.18834Z" fill="#FF2B90"/>
<path d="M26.4142 31.532C26.4142 33.3641 26.1495 35.4076 25.6202 37.6625C23.7145 45.6956 20.662 49.7121 16.4626 49.7121C13.957 49.7121 11.6808 48.3028 9.63404 45.4842C7.58724 42.7008 6.49327 39.5299 6.35211 35.9714L5.45223 42.3661H2.69965C2.09973 31.5497 1.19984 20.1519 0 8.17282C3.17606 6.16457 6.77559 5.16044 10.7986 5.16044C14.1864 5.16044 17.1154 5.84747 19.5857 7.22154C22.0912 8.59562 23.3793 10.2692 23.4499 12.2422C23.4499 12.2422 23.4499 12.4007 23.4499 12.7178C23.4499 17.9323 20.362 21.1384 14.1864 22.3363C15.2098 22.2306 16.1449 22.1778 16.9919 22.1778C23.2734 22.1778 26.4142 25.2959 26.4142 31.532ZM13.8688 15.4131C13.8688 15.3779 13.8511 15.0432 13.8158 14.409C13.71 12.6826 13.3924 11.2028 12.863 9.96969C12.369 8.70131 11.822 8.06713 11.2221 8.06713H11.1691C10.6045 8.06713 10.1457 8.56039 9.79284 9.5469C9.47523 10.4982 9.31643 11.7137 9.31643 13.1935C9.31643 13.8629 9.31643 14.1976 9.31643 14.1976C9.4223 15.924 9.72226 17.4214 10.2163 18.6898C10.7457 19.9229 11.3103 20.5395 11.9102 20.5395H11.9631C12.5278 20.5395 12.9865 20.0638 13.3394 19.1126C13.6923 18.126 13.8688 16.8929 13.8688 15.4131ZM16.3038 36.8698C16.3038 34.7558 16.0391 32.3952 15.5097 29.788C14.8392 26.3352 13.957 24.6265 12.863 24.6617C12.2631 24.6617 11.7691 25.3487 11.3809 26.7228C11.028 28.0969 10.8515 29.8233 10.8515 31.902C10.8515 33.1704 10.8692 34.0336 10.9045 34.4916C11.1162 37.1693 11.5397 39.4418 12.1749 41.3091C12.8454 43.1764 13.5335 44.1101 14.2393 44.1101H14.2922C14.8922 44.1101 15.3686 43.4231 15.7215 42.049C16.1097 40.6749 16.3038 38.9485 16.3038 36.8698Z" stroke="#FFC92A" stroke-width="2" mask="url(#path-1-inside-1_1202_434)"/>
<path d="M61.0685 50.2758C61.0685 53.1649 60.4333 55.5078 59.1629 57.3047C57.8924 59.1016 56.2691 60 54.2929 60C51.1521 60 47.8879 57.7451 44.5001 53.2353C42.2062 50.1701 40.1418 46.5588 38.3068 42.4013C38.2362 42.3308 38.1303 42.1899 37.9892 41.9785C38.1656 46.0655 38.5538 49.9763 39.1537 53.711L30.1549 53.9752C30.4725 46.0479 30.6313 41.1858 30.6313 39.3889C30.6313 34.9144 30.4196 30.0523 29.9961 24.8026L32.7487 24.4855L34.6014 30.8274V30.0347C34.6014 24.8907 35.9424 20.698 38.6244 17.4566C41.024 14.5675 43.7943 13.123 46.935 13.123C49.7229 13.123 51.8932 14.3033 53.446 16.6639C54.787 18.7074 55.4575 21.1913 55.4575 24.1156C55.4575 28.1673 54.0459 32.2191 51.2227 36.2708C48.6113 40.0407 45.8587 42.4189 42.965 43.4054C44.3766 46.6468 45.8764 49.2364 47.4644 51.1742C48.8407 52.8654 49.9523 53.711 50.7992 53.711C51.3639 53.711 51.6462 53.3058 51.6462 52.4955C51.6462 50.91 50.5875 48.4437 48.4701 45.0966L57.9454 38.7547C60.0274 42.8769 61.0685 46.7173 61.0685 50.2758ZM43.9178 24.9083C43.9178 21.3146 43.4061 19.4649 42.3827 19.3592H42.2768C41.571 19.3592 40.83 20.2928 40.0536 22.1602C39.3125 23.9923 38.7655 26.2472 38.4126 28.9248C38.2009 30.4751 38.095 32.0253 38.095 33.5755C38.095 37.1693 38.6067 39.019 39.6301 39.1247H39.736C40.4418 39.1247 41.1652 38.191 41.9063 36.3237C42.6827 34.4564 43.2473 32.2015 43.6002 29.559C43.8119 28.0088 43.9178 26.4586 43.9178 24.9083Z" stroke="#FFC92A" stroke-width="2" mask="url(#path-1-inside-1_1202_434)"/>
<path d="M89.9706 35.6895L77.7428 37.5392V36.4822C77.7428 32.3952 77.6369 28.3787 77.4252 24.4327L72.0259 25.7539C71.6377 29.8761 71.4436 33.2232 71.4436 35.7952L59.1099 35.4253C63.4152 25.0316 67.4206 13.3168 71.126 0.280718L77.3193 1.39055C78.5191 8.75416 80.1248 15.0608 82.1363 20.3105C82.9833 20.0991 84.0772 19.7996 85.4182 19.412C86.3358 23.6399 87.8532 29.0658 89.9706 35.6895ZM77.2134 21.5788C76.7547 15.9416 75.9783 11.2381 74.8843 7.46817C73.9668 11.0267 73.1022 16.1354 72.2906 22.7944L77.2134 21.5788Z" stroke="#FFC92A" stroke-width="2" mask="url(#path-1-inside-1_1202_434)"/>
<path d="M110.756 17.4742C107.121 16.8048 103.628 16.4701 100.275 16.4701H100.01C100.469 20.839 101.598 29.6119 103.398 42.7889H91.3292C91.9997 37.7154 92.5114 33.5579 92.8643 30.3165C93.6407 23.6928 94.17 18.0908 94.4524 13.5106H93.129C90.9058 13.5106 87.8532 13.7924 83.9714 14.3561C83.9714 14.1095 84.0067 13.2111 84.0772 11.6609C84.1478 10.4982 84.1831 9.56451 84.1831 8.85986C84.1831 7.23916 84.0596 6.05887 83.8126 5.31898C86.0358 5.63608 88.5061 5.79462 91.2234 5.79462C92.5997 5.79462 95.2287 5.72416 99.1106 5.58323C99.1106 6.04125 99.1459 6.93968 99.2164 8.27852C100.804 8.27852 102.851 8.06713 105.357 7.64434C107.121 7.29201 108.886 6.9573 110.65 6.64021C110.544 7.94381 110.491 9.28265 110.491 10.6567C110.491 12.665 110.58 14.9375 110.756 17.4742Z" stroke="#FFC92A" stroke-width="2" mask="url(#path-1-inside-1_1202_434)"/>
<path d="M135 21.526L120.284 44.5153C120.814 44.4096 121.766 44.3567 123.143 44.3567C123.813 44.3567 124.96 44.3743 126.583 44.4096C128.242 44.4448 129.442 44.4624 130.183 44.4624C131.383 44.4624 132.442 44.4272 133.359 44.3567C133.006 46.5764 132.83 48.7079 132.83 50.7514C132.83 52.7949 133.006 54.3275 133.359 55.3493C130.959 54.9617 123.901 54.2395 112.185 53.1825L111.868 47.3163C114.02 45.8013 116.685 42.4718 119.861 37.3278C124.59 29.6823 127.095 25.6658 127.377 25.2783C126.389 25.1021 125.313 25.014 124.148 25.014C122.49 25.014 120.937 25.2254 119.49 25.6482C119.243 25.8596 119.032 26.1767 118.855 26.5995C118.432 27.6917 118.185 29.3124 118.114 31.4616L107.633 32.73L108.004 21.4203C109.203 21.7021 114.62 21.8431 124.254 21.8431C129.512 21.8431 133.094 21.7374 135 21.526Z" stroke="#FFC92A" stroke-width="2" mask="url(#path-1-inside-1_1202_434)"/>
<path d="M58.849 1.18834C59.1719 2.79881 52.7501 5.44014 44.5055 7.08792C36.261 8.7357 29.3156 8.76595 28.9927 7.15548C28.6698 5.54501 35.0916 2.90368 43.3362 1.2559C51.5807 -0.391882 58.5261 -0.42213 58.849 1.18834Z" stroke="#FFC92A" stroke-width="2" mask="url(#path-1-inside-1_1202_434)"/>
</svg>
